<?xml version="1.0" encoding="iso-8859-1"?>
<!-- Generator: Adobe Illustrator 19.0.0, SVG Export Plug-In . SVG Version: 6.00 Build 0)  -->
<svg version="1.1" id="Capa_1" xmlns="http://www.w3.org/2000/svg" xmlns:xlink="http://www.w3.org/1999/xlink" x="0px" y="0px"
	 viewBox="0 0 512 512" width="48 " height="48" style="enable-background:new 0 0 512 512;" xml:space="preserve">
<g>
	<g>
		<path d="M328,36H216c-4.424,0-8,3.584-8,8s3.576,8,8,8h112c4.424,0,8-3.584,8-8S332.424,36,328,36z"/>
	</g>
</g>
<g>
	<g>
		<path d="M288,36c-4.424,0-8,3.584-8,8v40c0,4.416,3.576,8,8,8s8-3.584,8-8V44C296,39.584,292.424,36,288,36z"/>
	</g>
</g>
<g>
	<g>
		<path d="M288,76h-32c-4.424,0-8,3.584-8,8s3.576,8,8,8h32c4.424,0,8-3.584,8-8S292.424,76,288,76z"/>
	</g>
</g>
<g>
	<g>
		<path d="M256,36c-4.424,0-8,3.584-8,8v40c0,4.416,3.576,8,8,8s8-3.584,8-8V44C264,39.584,260.424,36,256,36z"/>
	</g>
</g>
<g>
	<g>
		<path d="M216,196h-96c-4.424,0-8,3.584-8,8s3.576,8,8,8h96c4.424,0,8-3.584,8-8S220.424,196,216,196z"/>
	</g>
</g>
<g>
	<g>
		<path d="M328,180c-4.424,0-8,3.584-8,8v136c0,4.424,3.576,8,8,8s8-3.576,8-8V188C336,183.584,332.424,180,328,180z"/>
	</g>
</g>
<g>
	<g>
		<path d="M504,380h-23.832c-4.424,0-8,3.576-8,8s3.576,8,8,8H504c4.424,0,8-3.576,8-8S508.424,380,504,380z"/>
	</g>
</g>
<g>
	<g>
		<path d="M504,380c-4.424,0-8,3.576-8,8v32c0,4.424,3.576,8,8,8s8-3.576,8-8v-32C512,383.576,508.424,380,504,380z"/>
	</g>
</g>
<g>
	<g>
		<path d="M80,412c-0.008,0-0.016,0-0.024,0l-56,0.168c-4.424,0.016-7.992,3.6-7.976,8.024c0.016,4.416,3.592,7.976,8,7.976
			c0.008,0,0.016,0,0.024,0l56-0.168c4.424-0.016,7.992-3.6,7.976-8.024C87.984,415.56,84.408,412,80,412z"/>
	</g>
</g>
<g>
	<g>
		<path d="M496,340h-8c-4.424,0-8,3.576-8,8s3.576,8,8,8h8c4.424,0,8-3.576,8-8S500.424,340,496,340z"/>
	</g>
</g>
<g>
	<g>
		<path d="M496,284c-4.424,0-8,3.576-8,8v96c0,4.424,3.576,8,8,8s8-3.576,8-8v-96C504,287.576,500.424,284,496,284z"/>
	</g>
</g>
<g>
	<g>
		<path d="M448,180H328c-4.424,0-8,3.584-8,8s3.576,8,8,8h120c4.424,0,8-3.584,8-8S452.424,180,448,180z"/>
	</g>
</g>
<g>
	<g>
		<path d="M503.264,288.648l-48-104c-1.848-4.008-6.584-5.76-10.616-3.912c-4.016,1.848-5.76,6.608-3.912,10.616l48,104
			c1.352,2.928,4.248,4.648,7.272,4.648c1.12,0,2.256-0.232,3.344-0.736C503.368,297.416,505.112,292.656,503.264,288.648z"/>
	</g>
</g>
<g>
	<g>
		<path d="M24,380c-4.424,0-8,3.576-8,8v32.504c0,4.424,3.576,8,8,8s8-3.584,8-8V388C32,383.576,28.424,380,24,380z"/>
	</g>
</g>
<g>
	<g>
		<path d="M8,276c-4.424,0-8,3.576-8,8v104c0,4.424,3.576,8,8,8s8-3.576,8-8V284C16,279.576,12.424,276,8,276z"/>
	</g>
</g>
<g>
	<g>
		<path d="M328,276H8c-4.424,0-8,3.576-8,8s3.576,8,8,8h320c4.424,0,8-3.576,8-8S332.424,276,328,276z"/>
	</g>
</g>
<g>
	<g>
		<path d="M48,380H8c-4.424,0-8,3.576-8,8s3.576,8,8,8h40c4.424,0,8-3.576,8-8S52.424,380,48,380z"/>
	</g>
</g>
<g>
	<g>
		<path d="M128,364c-30.872,0-56,25.128-56,56s25.128,56,56,56s56-25.128,56-56S158.872,364,128,364z M128,460
			c-22.056,0-40-17.944-40-40c0-22.056,17.944-40,40-40c22.056,0,40,17.944,40,40C168,442.056,150.056,460,128,460z"/>
	</g>
</g>
<g>
	<g>
		<path d="M128,396c-13.232,0-24,10.768-24,24s10.768,24,24,24s24-10.768,24-24S141.232,396,128,396z M128,428c-4.416,0-8-3.584-8-8
			c0-4.416,3.584-8,8-8s8,3.584,8,8C136,424.416,132.416,428,128,428z"/>
	</g>
</g>
<g>
	<g>
		<path d="M392,396c-13.232,0-24,10.768-24,24s10.768,24,24,24s24-10.768,24-24S405.232,396,392,396z M392,428c-4.416,0-8-3.584-8-8
			c0-4.416,3.584-8,8-8c4.416,0,8,3.584,8,8C400,424.416,396.416,428,392,428z"/>
	</g>
</g>
<g>
	<g>
		<path d="M392,364c-30.872,0-56,25.128-56,56s25.128,56,56,56s56-25.128,56-56S422.872,364,392,364z M392,460
			c-22.056,0-40-17.944-40-40c0-22.056,17.944-40,40-40c22.056,0,40,17.944,40,40C432,442.056,414.056,460,392,460z"/>
	</g>
</g>
<g>
	<g>
		<path d="M344.2,412H176c-4.424,0-8,3.576-8,8s3.576,8,8,8h168.2c4.424,0,8-3.576,8-8S348.624,412,344.2,412z"/>
	</g>
</g>
<g>
	<g>
		<path d="M504,412h-64c-4.424,0-8,3.576-8,8s3.576,8,8,8h64c4.424,0,8-3.576,8-8S508.424,412,504,412z"/>
	</g>
</g>
<g>
	<g>
		<path d="M496,284h-96c-4.424,0-8,3.576-8,8s3.576,8,8,8h96c4.424,0,8-3.576,8-8S500.424,284,496,284z"/>
	</g>
</g>
<g>
	<g>
		<path d="M400,284c-13.232,0-24-10.768-24-24c0-4.416-3.576-8-8-8s-8,3.584-8,8c0,22.056,17.944,40,40,40c4.424,0,8-3.576,8-8
			S404.424,284,400,284z"/>
	</g>
</g>
<g>
	<g>
		<path d="M368,180c-4.424,0-8,3.584-8,8v72c0,4.424,3.576,8,8,8s8-3.576,8-8v-72C376,183.584,372.424,180,368,180z"/>
	</g>
</g>
<g>
	<g>
		<path d="M328,36c-4.424,0-8,3.584-8,8v240c0,4.424,3.576,8,8,8s8-3.576,8-8V44C336,39.584,332.424,36,328,36z"/>
	</g>
</g>
<g>
	<g>
		<path d="M216,36c-4.424,0-8,3.584-8,8v240c0,4.424,3.576,8,8,8s8-3.576,8-8V44C224,39.584,220.424,36,216,36z"/>
	</g>
</g>
<g>
	<g>
		<path d="M120,100c-4.424,0-8,3.584-8,8v176c0,4.424,3.576,8,8,8s8-3.576,8-8V108C128,103.584,124.424,100,120,100z"/>
	</g>
</g>
<g>
	<g>
		<path d="M168,196c-4.424,0-8,3.584-8,8v24c0,4.416,3.576,8,8,8s8-3.584,8-8v-24C176,199.584,172.424,196,168,196z"/>
	</g>
</g>
<g>
	<g>
		<path d="M216,100h-96c-4.424,0-8,3.584-8,8s3.576,8,8,8h96c4.424,0,8-3.584,8-8S220.424,100,216,100z"/>
	</g>
</g>
<g>
	<g>
		<path d="M168,100c-4.424,0-8,3.584-8,8v16c0,4.416,3.576,8,8,8s8-3.584,8-8v-16C176,103.584,172.424,100,168,100z"/>
	</g>
</g>
<g>
	<g>
		<path d="M24,156c-4.424,0-8,3.584-8,8v120c0,4.424,3.576,8,8,8s8-3.576,8-8V164C32,159.584,28.424,156,24,156z"/>
	</g>
</g>
<g>
	<g>
		<path d="M120,156H24c-4.424,0-8,3.584-8,8s3.576,8,8,8h96c4.424,0,8-3.584,8-8S124.424,156,120,156z"/>
	</g>
</g>
<g>
	<g>
		<path d="M56,156c-4.424,0-8,3.584-8,8v24c0,4.416,3.576,8,8,8s8-3.584,8-8v-24C64,159.584,60.424,156,56,156z"/>
	</g>
</g>
<g>
	<g>
		<path d="M88,180H56c-4.424,0-8,3.584-8,8s3.576,8,8,8h32c4.424,0,8-3.584,8-8S92.424,180,88,180z"/>
	</g>
</g>
<g>
	<g>
		<path d="M88,156c-4.424,0-8,3.584-8,8v24c0,4.416,3.576,8,8,8s8-3.584,8-8v-24C96,159.584,92.424,156,88,156z"/>
	</g>
</g>
<g>
</g>
<g>
</g>
<g>
</g>
<g>
</g>
<g>
</g>
<g>
</g>
<g>
</g>
<g>
</g>
<g>
</g>
<g>
</g>
<g>
</g>
<g>
</g>
<g>
</g>
<g>
</g>
<g>
</g>
</svg>
