<svg id="line_icons" height="48" viewBox="0 0 74 74" width="48" xmlns="http://www.w3.org/2000/svg" data-name="line icons"><path d="m49.313 66.941h-24.626a1 1 0 0 1 -.968-1.25l2.113-8.179a1 1 0 0 1 .968-.75h20.4a1 1 0 0 1 .968.75l2.113 8.179a1 1 0 0 1 -.968 1.25zm-23.335-2h22.044l-1.6-6.179h-18.847z"/><path d="m54.75 72h-35.5a1 1 0 0 1 -1-1v-1.564a4.5 4.5 0 0 1 4.493-4.5h28.514a4.5 4.5 0 0 1 4.493 4.5v1.564a1 1 0 0 1 -1 1zm-34.5-2h33.5v-.564a2.5 2.5 0 0 0 -2.493-2.5h-28.514a2.5 2.5 0 0 0 -2.493 2.5z"/><path d="m67.065 58.762h-60.13a4.585 4.585 0 0 1 -4.58-4.579v-47.604a4.585 4.585 0 0 1 4.58-4.579h60.13a4.585 4.585 0 0 1 4.58 4.579v47.6a4.585 4.585 0 0 1 -4.58 4.583zm-60.13-54.762a2.583 2.583 0 0 0 -2.58 2.579v47.6a2.583 2.583 0 0 0 2.58 2.579h60.13a2.582 2.582 0 0 0 2.58-2.579v-47.6a2.582 2.582 0 0 0 -2.58-2.579z"/><path d="m70.645 45.876h-67.29a1 1 0 1 1 0-2h67.29a1 1 0 0 1 0 2z"/><path d="m37 54.243a3.148 3.148 0 1 1 3.147-3.143 3.151 3.151 0 0 1 -3.147 3.143zm0-4.3a1.148 1.148 0 1 0 1.147 1.157 1.148 1.148 0 0 0 -1.147-1.152z"/></svg>