<?xml version="1.0"?>
<svg xmlns="http://www.w3.org/2000/svg" xmlns:xlink="http://www.w3.org/1999/xlink" xmlns:svgjs="http://svgjs.com/svgjs" version="1.1" width="48" height="48" x="0" y="0" viewBox="0 0 64 64" style="enable-background:new 0 0 512 512" xml:space="preserve"><g><g xmlns="http://www.w3.org/2000/svg" id="Teacher-2" data-name="Teacher"><path d="m61 38h-1v-35a1 1 0 0 0 -1-1h-54a1 1 0 0 0 -1 1v35h-1a1 1 0 0 0 -1 1v4a1 1 0 0 0 1 1h9v17a1 1 0 0 0 1 1h12a1 1 0 0 0 1-1v-17h35a1 1 0 0 0 1-1v-4a1 1 0 0 0 -1-1zm-55-34h52v34h-2v-3a1 1 0 0 0 -1-1h-10a1 1 0 0 0 -1 1v3h-18v-4h5a.993.993 0 0 0 .594-.2l7.657-5.657a1 1 0 0 0 .113-1.511l-.793-.793 11.136-11.132-1.414-1.414-11.136 11.136-.621-.621a1 1 0 0 0 -1.276-.116l-6.229 4.308h-1.2a3.006 3.006 0 0 0 -2.831-2h-1.11a6.977 6.977 0 0 0 2.11-5v-3h1a1 1 0 0 0 1-1v-2a5.006 5.006 0 0 0 -5-5h-8a5.006 5.006 0 0 0 -5 5v2a1 1 0 0 0 1 1h1v3a6.977 6.977 0 0 0 2.11 5h-1.11a5.006 5.006 0 0 0 -5 5v7h-2zm48 34h-8v-2h8zm-40 4v-9h-2v9h-2v-11a3 3 0 0 1 3-3h12a1 1 0 0 1 1 1 1 1 0 0 0 1 1h2.343a1 1 0 0 0 .569-.178l5.8-4.01 1.417 1.417-6.458 4.771h-5.671a1 1 0 0 0 -1 1v9zm0-21v-4.719l6.757 1.689a1.011 1.011 0 0 0 .69-.075l2.553-1.277v4.382a5 5 0 0 1 -10 0zm-1.615-6.788a1 1 0 0 0 -.385.788 3 3 0 0 1 3-3h8a3 3 0 0 1 3 3 1 1 0 0 0 -1.447-.895l-3.669 1.835-7.641-1.91a1 1 0 0 0 -.858.182zm-8.385 25.788h4v2h-4zm20 20h-4v-13h-2v13h-4v-16h10zm36-18h-34v-2h34z" fill="#000000" data-original="#000000" style=""/><path d="m18 30h2v2h-2z" fill="#000000" data-original="#000000" style=""/><path d="m18 34h2v2h-2z" fill="#000000" data-original="#000000" style=""/><path d="m18 38h2v2h-2z" fill="#000000" data-original="#000000" style=""/></g></g></svg>
