<svg height="58" viewBox="0 0 128 128" width="58" xmlns="http://www.w3.org/2000/svg"><g><path d="m110.237 61.532a16.2 16.2 0 0 0 -22.906 0l-6.023 6.023a8.558 8.558 0 0 0 -8.557-8.526h-22.6a7.284 7.284 0 0 0 -5.185 2.148l-13.844 13.847-2.034-2.033a1.75 1.75 0 0 0 -2.474 0l-8.851 8.851a1.749 1.749 0 0 0 0 2.475l25.92 25.92a1.749 1.749 0 0 0 2.475 0l8.851-8.851a1.75 1.75 0 0 0 0-2.474l-1.545-1.545 6.117-6.117a2.235 2.235 0 0 1 1.589-.657h18.63a9.244 9.244 0 0 0 6.579-2.726l23.86-23.86a1.749 1.749 0 0 0 -.002-2.475zm-65.317 44.993-23.445-23.445 6.376-6.38 23.449 23.449zm38.98-21.133a5.845 5.845 0 0 1 -4.1 1.7h-18.63a5.708 5.708 0 0 0 -4.064 1.683l-6.114 6.115-17.369-17.417 13.821-13.822a3.81 3.81 0 0 1 2.71-1.122h22.6a5.059 5.059 0 0 1 5.034 5.56 5.259 5.259 0 0 1 -5.327 4.556h-11.041a1.75 1.75 0 0 0 0 3.5h15.522a1.752 1.752 0 0 0 1.238-.513l11.626-11.625a12.7 12.7 0 0 1 16.635-1.153z"/><path d="m47.42 44.3h26.622l9.7 5.68a1.751 1.751 0 0 0 2.634-1.511v-9.709c0-.041 0-.082 0-.123s0-.094 0-.141v-15.396a5.808 5.808 0 0 0 -5.8-5.8h-33.156a5.807 5.807 0 0 0 -5.8 5.8v15.4a5.807 5.807 0 0 0 5.8 5.8zm-2.3-21.2a2.3 2.3 0 0 1 2.3-2.3h33.16a2.3 2.3 0 0 1 2.3 2.3v15.324c-.01.074-.019.147-.024.221a1.684 1.684 0 0 0 .024.408v6.362l-7.48-4.378a1.735 1.735 0 0 0 -.883-.24h-27.097a2.3 2.3 0 0 1 -2.3-2.3z"/><path d="m64.437 33.25a3.125 3.125 0 1 0 -3.125-3.125 3.129 3.129 0 0 0 3.125 3.125zm0-3.5a.375.375 0 1 1 -.375.375.375.375 0 0 1 .375-.375z"/><path d="m74.375 33.25a3.125 3.125 0 1 0 -3.125-3.125 3.129 3.129 0 0 0 3.125 3.125zm0-3.5a.375.375 0 1 1 -.375.375.375.375 0 0 1 .375-.375z"/><path d="m54.5 33.25a3.125 3.125 0 1 0 -3.125-3.125 3.129 3.129 0 0 0 3.125 3.125zm0-3.5a.375.375 0 1 1 -.375.375.375.375 0 0 1 .375-.375z"/></g></svg>