<?xml version="1.0" encoding="iso-8859-1"?>
<!-- Generator: Adobe Illustrator 19.0.0, SVG Export Plug-In . SVG Version: 6.00 Build 0)  -->
<svg version="1.1" id="Layer_1" xmlns="http://www.w3.org/2000/svg" xmlns:xlink="http://www.w3.org/1999/xlink" x="0px" y="0px"
	 viewBox="0 0 512.003 512.003" style="enable-background:new 0 0 512.003 512.003;" xml:space="preserve" width="48" height="48">
<g>
	<g>
		<g>
			<path d="M501.336,192.001H267.221c-5.896,0-10.667,4.771-10.667,10.667c0,5.896,4.771,10.667,10.667,10.667h234.115
				c5.896,0,10.667-4.771,10.667-10.667C512.003,196.772,507.232,192.001,501.336,192.001z"/>
			<path d="M501.336,298.668H266.669c-5.896,0-10.667,4.771-10.667,10.667c0,5.896,4.771,10.667,10.667,10.667h234.667
				c5.896,0,10.667-4.771,10.667-10.667C512.003,303.439,507.232,298.668,501.336,298.668z"/>
			<path d="M501.336,405.335H266.669c-5.896,0-10.667,4.771-10.667,10.667c0,5.896,4.771,10.667,10.667,10.667h234.667
				c5.896,0,10.667-4.771,10.667-10.667C512.003,410.105,507.232,405.335,501.336,405.335z"/>
			<path d="M266.669,106.668h234.667c5.896,0,10.667-4.771,10.667-10.667s-4.771-10.667-10.667-10.667H266.669
				c-5.896,0-10.667,4.771-10.667,10.667S260.773,106.668,266.669,106.668z"/>
			<path d="M145.065,247.47l-128-96c-4.688-3.51-11.385-2.583-14.927,2.135c-3.542,4.708-2.583,11.396,2.135,14.927l116.615,87.469
				L4.273,343.47c-4.719,3.531-5.677,10.219-2.135,14.927c2.094,2.802,5.292,4.271,8.542,4.271c2.229,0,4.469-0.698,6.385-2.135
				l128-96c2.688-2.01,4.271-5.177,4.271-8.531C149.336,252.647,147.753,249.48,145.065,247.47z"/>
			<path d="M202.669,64.001c-5.896,0-10.667,4.771-10.667,10.667v362.667c0,5.896,4.771,10.667,10.667,10.667
				c5.896,0,10.667-4.771,10.667-10.667V74.668C213.336,68.772,208.565,64.001,202.669,64.001z"/>
		</g>
	</g>
</g>
<g>
</g>
<g>
</g>
<g>
</g>
<g>
</g>
<g>
</g>
<g>
</g>
<g>
</g>
<g>
</g>
<g>
</g>
<g>
</g>
<g>
</g>
<g>
</g>
<g>
</g>
<g>
</g>
<g>
</g>
</svg>
