<svg height="48" viewBox="0 0 480 480.05341" width="48" xmlns="http://www.w3.org/2000/svg"><path d="m476.515625 65.429688c-2.199219-1.488282-4.996094-1.789063-7.464844-.800782l-38.558593 15.425782h-30.464844c-3.445313-.003907-6.503906 2.203124-7.589844 5.472656l-6.882812 20.644531-19.277344 8.570313-117.601563 52.289062c-16.023437-9.269531-35.191406-11.433594-52.878906-5.96875l-3.769531-.328125v-11.738281l27.578125-13.742188c.765625-.390625 1.46875-.898437 2.078125-1.503906l84.570312-84.609375 1.597656-1.597656 45.480469-7.585938c2.179688-.363281 4.109375-1.609375 5.335938-3.449219l16-24c1.644531-2.453124 1.804687-5.609374.417969-8.21875-1.390626-2.605468-4.105469-4.2343745-7.058594-4.2343745h-63.566406c-7.433594-.0078125-14.597657 2.7929685-20.054688 7.8398435l-6.800781 6.277344-88.703125 81.882813h-.402344c1.585938-2.144532 2.925781-4.457032 4-6.898438l6.152344-14.535156 3.199218-7.550782c2.59375-6.113281 3.425782-12.832031 2.402344-19.394531 9.636719 1.597657 19.277344-2.804687 24.382813-11.132812s4.652343-18.921875-1.144531-26.785157c-5.796876-7.859374-15.777344-11.425781-25.246094-9.015624-9.464844 2.414062-16.523438 10.320312-17.847656 20-.554688-.265626-1.035157-.632813-1.601563-.863282-1.976563-.820312-4.027344-1.457031-6.121094-1.90625-.480469-.101562-.949219-.222656-1.421875-.320312-1.851562-.332032-3.722656-.519532-5.601562-.558594-.695313 0-1.382813 0-2.070313.039062-1.5.046876-2.992187.191407-4.472656.433594-.890625.144532-1.753906.320313-2.617187.527344-1.3125.3125-2.609376.695312-3.878907 1.152344-.761719.269531-1.511719.542968-2.25.863281-1.484375.640625-2.929687 1.382813-4.320312 2.214844l-.09375.089843c-6.398438 3.875-11.417969 9.664063-14.351563 16.542969l-9.359375 22.097657c-.175781.40625-.242187.847656-.394531 1.253906l-32.71875-49.070313c-5.476562-8.253906-14.726562-13.207031-24.632812-13.1835935h-60.464844c-2.570313 0-4.984375 1.2343745-6.488282 3.3203125-1.5039058 2.085938-1.914062 4.765625-1.101562 7.207031l8 24c.9375 2.808594 3.347656 4.871094 6.269531 5.359375l44.160157 7.359375 44.363281 81.28125-1.3125 3.28125c-8.566407 21.777344.121093 46.542969 20.414062 58.199219l21.863281 36.445312 9.160157 142.058594 6.714843 104c.269532 4.199219 3.746094 7.472656 7.957032 7.488282h24c3.804687 0 7.082031-2.675782 7.839844-6.402344l7.699218-38.445313 15.117188-22.679687c1.792968-2.691406 1.792968-6.195313 0-8.882813l-14.511719-21.765625.800781-13.320312 6.800782-115.601563 177.191406-97.800781 50.640625-27.941406 32-16c2.710937-1.355469 4.425781-4.128906 4.421875-7.160156v-32c0-2.65625-1.3125-5.136719-3.511719-6.625zm-181.285156-45.777344c2.507812-2.324219 5.808593-3.609375 9.230469-3.597656h48.617187l-5.785156 8.679687-44.585938 7.429687c-.175781.023438-.347656.058594-.519531.105469l-8.421875-11.199219zm-128.488281 13.648437c1.117187-.148437 2.246093-.203125 3.375-.160156.4375 0 .878906.074219 1.328124.136719 1.722657.210937 3.414063.648437 5.023438 1.304687h.054688c4.886718 2.0625 8.742187 6 10.707031 10.925781.457031 1.152344.8125 2.34375 1.054687 3.5625.078125.398438.09375.800782.152344 1.214844.121094.796875.195312 1.597656.222656 2.398438 0 .472656 0 .945312-.0625 1.417968-.039062.753907-.121094 1.503907-.242187 2.246094-.085938.480469-.199219.960938-.320313 1.441406-.085937.34375-.214844.679688-.320312 1.015626l-2.644532-1.953126c-8.25-6.246093-15.058593-14.191406-19.960937-23.300781.519531-.113281 1.078125-.195312 1.632813-.25zm41.285156-17.246093c4.417968 0 8 3.582031 8 8 0 4.417968-3.582032 8-8 8-4.417969 0-8-3.582032-8-8 0-4.417969 3.582031-8 8-8zm-67.09375 51.199218 9.367187-22.097656c.460938-.898438.996094-1.757812 1.601563-2.566406 5.90625 10.546875 13.929687 19.761718 23.566406 27.0625l6.007812 4.503906-3.71875 8.800781c-4.335937 10.148438-16.054687 14.890625-26.226562 10.609375-10.164062-4.316406-14.90625-16.050781-10.597656-26.21875zm-121.808594-51.199218h49.367188c2.289062-.003907 4.539062.574218 6.542968 1.679687l-13.75 13.75-39.199218-6.527344zm174.246094 411.558593c-.578125.871094-.980469 1.847657-1.183594 2.871094l-6.71875 33.570313h-9.9375l-5.679688-88h22.632813l-.457031 7.527343c-.101563 1.738281.363281 3.460938 1.328125 4.910157l13.074219 19.5625zm10.792968-186.558593c-2.402343 1.324218-3.957031 3.789062-4.121093 6.527343l-6.613281 112.472657h-24.601563l-8.800781-136.511719c-.082032-1.277344-.46875-2.515625-1.125-3.609375l-24-40c-.785156-1.304688-1.921875-2.359375-3.28125-3.039063-14.296875-7.246093-20.730469-24.179687-14.855469-39.089843l2.710937-6.785157c.882813-2.210937.734376-4.707031-.40625-6.796875l-45.152343-82.746094 11.269531-11.261718 52.183594 78.277344c1.484375 2.226562 3.984375 3.5625 6.65625 3.5625h48c2.011718 0 3.949218-.757813 5.425781-2.121094l84.488281-77.992188 8.09375 10.792969-78.742187 78.742187-30.839844 15.417969c-2.714844 1.355469-4.425781 4.125-4.425781 7.160157v24c-.015625 4.15625 3.15625 7.632812 7.296875 8l12.632812 1.117187c1.09375.097656 2.195313-.03125 3.238281-.375 14.917969-5.019531 31.320313-2.824219 44.394532 5.945313 2.28125 1.519531 5.179687 1.769531 7.6875.65625l115.679687-51.417969 1.816407 2.402343 8.40625 11.199219zm259.863282-141.945313-27.863282 13.945313-44.800781 24.734374-9.375-12.503906 13.320313-5.917968c2.058594-.917969 3.636718-2.660157 4.34375-4.800782l6.144531-18.511718h26.230469c1.019531 0 2.03125-.195313 2.976562-.570313l29.023438-11.613281zm0 0"/></svg>