<?xml version="1.0"?>
<svg xmlns="http://www.w3.org/2000/svg" xmlns:xlink="http://www.w3.org/1999/xlink" xmlns:svgjs="http://svgjs.com/svgjs" version="1.1" width="48" height="48" x="0" y="0" viewBox="0 0 512 512" style="enable-background:new 0 0 512 512" xml:space="preserve" class=""><g><g xmlns="http://www.w3.org/2000/svg"><g fill="#57a4ff"><path d="m496 76v268h-480v-268a19.994 19.994 0 0 1 20-20h440a19.994 19.994 0 0 1 20 20z" fill="#f2f1f9" data-original="#57a4ff" style="" class=""/><path d="m312 432h-112l8-40h96z" fill="#f2f1f9" data-original="#57a4ff" style="" class=""/></g><g fill="#004fac"><path d="m476 48h-440a28.031 28.031 0 0 0 -28 28v296a28.031 28.031 0 0 0 28 28h162.24l-4.8 24h-33.44a8 8 0 0 0 -8 8v24a8 8 0 0 0 8 8h192a8 8 0 0 0 8-8v-24a8 8 0 0 0 -8-8h-33.44l-4.8-24h162.24a28.031 28.031 0 0 0 28-28v-296a28.031 28.031 0 0 0 -28-28zm-132 392v8h-176v-8zm-134.24-16 4.8-24h82.88l4.8 24zm278.24-52a12.01 12.01 0 0 1 -12 12h-440a12.01 12.01 0 0 1 -12-12v-20h464zm0-36h-464v-260a12.01 12.01 0 0 1 12-12h440a12.01 12.01 0 0 1 12 12z" fill="#000000" data-original="#004fac" style="" class=""/><path d="m264 360h-16a8 8 0 0 0 0 16h16a8 8 0 0 0 0-16z" fill="#000000" data-original="#004fac" style="" class=""/></g></g></g></svg>
