<?xml version="1.0"?>
<svg xmlns="http://www.w3.org/2000/svg" viewBox="0 0 64 64" width="48" height="48"><g id="outline"><path d="M26,18a1,1,0,0,0,1-1V14h5a1,1,0,0,0,.9-.553l1.99-4A.978.978,0,0,0,35,9V3a1,1,0,0,0-1-1H10A1,1,0,0,0,9,3V9a.978.978,0,0,0,.115.443l1.99,4A1,1,0,0,0,12,14h5v3a1,1,0,0,0,1,1h1v6H15a1,1,0,0,0-1,1v6a1,1,0,0,0,1,1h1.074L18,57.066A5.221,5.221,0,0,0,23,62H47a5.217,5.217,0,0,0,5-4.923L53.926,32H55a1,1,0,0,0,1-1V25a1,1,0,0,0-1-1H54V22a4,4,0,0,0-4-4H49V16h1a1,1,0,0,0,1-1V9a1,1,0,0,0-1-1H38a1,1,0,0,0-1,1v6a1,1,0,0,0,1,1h1v2H38a4,4,0,0,0-4,4v2H25V18ZM31,4h2V8H31ZM27,4h2V8H27ZM23,4h2V8H23ZM19,4h2V8H19ZM15,4h2V8H15ZM11,8V4h2V8Zm1.618,4-1-2H32.382l-1,2ZM47,60H23a3.111,3.111,0,0,1-2.739-2H49.74A3.112,3.112,0,0,1,47,60Zm7-34v4H50V26ZM39,10h2v2h2V10h2v2h2V10h2v4H39Zm8,6v2H41V16ZM36,22a2,2,0,0,1,2-2H50a2,2,0,0,1,2,2v2H36Zm-2,4H48V40a1,1,0,0,1-2,0V34H44v8a1,1,0,0,1-2,0V33H40V44a1,1,0,0,1-2,0V35H36v7a1,1,0,0,1-2,0Zm1,19a2.985,2.985,0,0,0,1.1-.211,3,3,0,0,0,5.79,0,3,3,0,0,0,4-2A3,3,0,0,0,50,40V32h1.92L50.074,56H19.926L18.08,32H32V42A3,3,0,0,0,35,45ZM32,26v4H16V26ZM21,24V18h2v6Zm-2-8V14h6v2Z"/><path d="M22.992,44.876l-1.984.248,1,8A1,1,0,0,0,23,54h3V52H23.883Z"/><rect x="28" y="52" width="2" height="2"/><rect x="32" y="52" width="2" height="2"/></g></svg>
