<svg id="_x33_0" enable-background="new 0 0 64 64" height="48" viewBox="0 0 64 64" width="48" xmlns="http://www.w3.org/2000/svg"><g><path d="m15 29c-3.309 0-6 2.691-6 6 0 2.206 1.794 4 4 4s4-1.794 4-4h-2c0 1.103-.897 2-2 2s-2-.897-2-2c0-2.206 1.794-4 4-4 3.309 0 6 2.691 6 6 0 4.411-3.589 8-8 8-5.514 0-10-4.486-10-10 0-4.057 1.984-7.869 5.308-10.195l10.9-7.63c2.375-1.662 3.792-4.385 3.792-7.284 0-4.902-3.989-8.891-8.891-8.891-1.714 0-3.109 1.395-3.109 3.109v16.371l-3.839 2.687c-3.858 2.7-6.161 7.124-6.161 11.833 0 5.934 4.334 10.863 10 11.819v11.181c0 1.654-1.346 3-3 3s-3-1.346-3-3c0-.551.449-1 1-1s1 .449 1 1v1h2v-1c0-1.654-1.346-3-3-3s-3 1.346-3 3c0 2.757 2.243 5 5 5s5-2.243 5-5v-11c5.514 0 10-4.486 10-10 0-4.411-3.589-8-8-8zm-2-24.891c0-.611.498-1.109 1.109-1.109 3.8 0 6.891 3.091 6.891 6.891 0 2.247-1.099 4.357-2.939 5.646l-5.061 3.542z"/><path d="m31 45.22 10 2v-8.04l-12-2.4v12.22h-2c-2.206 0-4 1.794-4 4s1.794 4 4 4 4-1.794 4-4zm0-6 8 1.6v3.96l-8-1.6zm-2 13.78c0 1.103-.897 2-2 2s-2-.897-2-2 .897-2 2-2h2z"/><path d="m51 18.895v10.105h-2c-2.206 0-4 1.794-4 4s1.794 4 4 4 4-1.794 4-4v-5.895l8 .8v3.095h-2c-2.206 0-4 1.794-4 4s1.794 4 4 4 4-1.794 4-4v-14.905zm0 14.105c0 1.103-.897 2-2 2s-2-.897-2-2 .897-2 2-2h2zm10 2c0 1.103-.897 2-2 2s-2-.897-2-2 .897-2 2-2h2zm-8-9.905v-3.99l8 .8v3.99z"/><path d="m43 9h2v12h2v-16c0-2.206-1.794-4-4-4s-4 1.794-4 4 1.794 4 4 4zm0-6c1.103 0 2 .897 2 2v2h-2c-1.103 0-2-.897-2-2s.897-2 2-2z"/><path d="m29 23c2.206 0 4-1.794 4-4v-16h-2v12h-2c-2.206 0-4 1.794-4 4s1.794 4 4 4zm0-6h2v2c0 1.103-.897 2-2 2s-2-.897-2-2 .897-2 2-2z"/><path d="m36.792 61.086.813 1.828c8.887-3.949 15.894-11.447 19.224-20.572l-1.879-.686c-3.146 8.619-9.764 15.701-18.158 19.43z"/><path d="m56.434 16.628c-1.505-3.76-3.624-7.221-6.298-10.286l-1.507 1.314c2.526 2.896 4.527 6.165 5.949 9.715z"/><path d="m53.532 39.309-1.902-.617c-3.047 9.39-11.047 16.797-20.879 19.332l.499 1.937c10.487-2.705 19.025-10.618 22.282-20.652z"/><path d="m51.841 16.554c-.713-1.432-1.547-2.823-2.481-4.134l-1.629 1.16c.873 1.226 1.653 2.526 2.32 3.866z"/><path d="m34.081 34.615 1.846.771c.712-1.709 1.073-3.52 1.073-5.386 0-2.683-.761-5.29-2.201-7.539l-1.685 1.078c1.234 1.927 1.886 4.161 1.886 6.461 0 1.6-.31 3.152-.919 4.615z"/><path d="m41 30c0 2.291-.424 4.522-1.261 6.631l1.859.737c.93-2.345 1.402-4.824 1.402-7.368 0-6.212-2.815-11.967-7.723-15.79l-1.229 1.578c4.418 3.441 6.952 8.621 6.952 14.212z"/></g></svg>