<svg id="Layer_3" enable-background="new 0 0 64 64" height="48" viewBox="0 0 64 64" width="48" xmlns="http://www.w3.org/2000/svg"><path d="m62 40h-1v-4c0-1.654-1.346-3-3-3s-3 1.346-3 3h-4v-3c0-.553-.448-1-1-1h-10.132l.964-1.445c.109-.164.168-.358.168-.555v-3c.552 0 1-.447 1-1v-8c0-2.757-2.243-5-5-5h-.809c1.114-1.272 1.809-3.042 1.809-5 0-3.859-2.691-7-6-7s-6 3.141-6 7c0 1.958.695 3.728 1.809 5h-.809c-2.757 0-5 2.243-5 5v8c0 .553.448 1 1 1v3c0 .197.059.391.168.555l.964 1.445h-6.132c-1.171 0-2.235.421-3.088 1.098-.51-2.881-3.411-5.098-6.912-5.098-3.86 0-7 2.691-7 6s3.14 6 7 6c2.024 0 3.844-.744 5.123-1.925.157.714.476 1.361.902 1.925h-6.025-6c-.552 0-1 .447-1 1v4c0 .553.448 1 1 1h3v16c0 .553.448 1 1 1h4c.552 0 1-.447 1-1v-16h14v8c0 .553.448 1 1 1h1v4h.026c-.635.838-1.026 1.87-1.026 3 0 .553.448 1 1 1h10c.552 0 1-.447 1-1 0-1.13-.391-2.162-1.026-3h.026v-4h1c.552 0 1-.447 1-1v-3.382l2.803-1.401 1.49 1.49c.391.391 1.023.391 1.414 0l1.49-1.49 3.355 1.678c.142.07.295.105.448.105.183 0 .365-.05.526-.149.294-.183.474-.504.474-.851v-4h2v16c0 .553.448 1 1 1h4c.552 0 1-.447 1-1v-16h3c.552 0 1-.447 1-1v-4c0-.553-.448-1-1-1zm-23-10.303-1.535 2.303h-2.465l1.8-2.4c.13-.173.2-.383.2-.6v-2h2zm-11-21.697c0-2.757 1.794-5 4-5s4 2.243 4 5-1.794 5-4 5-4-2.243-4-5zm-4 10c0-1.654 1.346-3 3-3h10c1.654 0 3 1.346 3 3v7h-3v-4h-2v5 2.667l-2.5 3.333h-1l-2.5-3.333v-2.667-5h-2v4h-3zm1 11.697v-2.697h2v2c0 .217.07.427.2.6l1.8 2.4h-2.465zm-17 8.303c-2.757 0-5-1.794-5-4s2.243-4 5-4 5 1.794 5 4-2.243 4-5 4zm7-1c0-1.654 1.346-3 3-3h19v6h-18-1c-1.654 0-3-1.346-3-3zm-12 5h15 1 18v2h-34zm6 19h-2v-15h2zm22-15v7h-4v-7zm0 9v2c-.712 0-1.386.154-2 .424v-2.424zm-2.829 6c.413-1.164 1.525-2 2.829-2v2zm4.829 0v-2c1.304 0 2.416.836 2.829 2zm2-3.576c-.614-.27-1.288-.424-2-.424v-2h2zm2-4.424h-4v-7h4v3 1zm12-4.618-2.553-1.276c-.386-.193-.85-.116-1.154.188l-1.293 1.292-1.293-1.293c-.192-.192-.448-.293-.707-.293-.151 0-.305.034-.447.105l-2.553 1.277v-14.382h4v12h2v-12h4zm7-10.382c.552 0 1-.447 1-1v-1c0-.552.449-1 1-1s1 .448 1 1v4h-8v-2zm1 23h-2v-15h2zm4-17h-10v-2h10z"/></svg>