<svg id="Capa_1" enable-background="new 0 0 512 512" height="512" viewBox="0 0 512 512" width="512" xmlns="http://www.w3.org/2000/svg"><g><path d="m497 312.888v-22.302c0-4.143-3.358-7.5-7.5-7.5s-7.5 3.357-7.5 7.5v22.296h-72v-66.772c0-10.052-8.178-18.23-18.23-18.23h-32.96v-72h63.39c32.974 0 59.8 26.826 59.8 59.8v39.906c0 4.142 3.358 7.5 7.5 7.5s7.5-3.358 7.5-7.5v-39.906c0-41.245-33.555-74.8-74.8-74.8h-65.29c-4.946-14.932-19.031-25.739-35.6-25.739h-24.869v-28.404c10.201-.45 18.653-7.723 20.903-17.357h75.156c14.089.062 26-11.889 26-26 0-14.336-11.664-26-26-26h-75.157c-2.324-9.947-11.26-17.38-21.905-17.38h-48.876c-10.645 0-19.581 7.433-21.905 17.38h-75.157c-14.231-.076-26 11.817-26 26 0 14.336 11.664 26 26 26h75.156c2.25 9.634 10.702 16.907 20.903 17.357v28.404h-24.869c-16.57 0-30.654 10.807-35.6 25.739h-56.38c-3.096-8.729-11.432-14.999-21.209-14.999s-18.113 6.27-21.209 14.999h-78.792c-4.142 0-7.5 3.358-7.5 7.5s3.358 7.5 7.5 7.5h77.5v72h-77.5c-4.142 0-7.5 3.358-7.5 7.5s3.358 7.5 7.5 7.5h78.79c3.096 8.73 11.432 15.001 21.21 15.001s18.115-6.271 21.21-15.001h56.378c4.945 14.934 19.03 25.742 35.601 25.742h12.681c4.142 0 7.5-3.357 7.5-7.5 0-4.142-3.358-7.5-7.5-7.5h-12.68c-11.23 0-20.563-8.27-22.233-19.039-.003-.028-.009-.054-.012-.081.305-1.379-.304-82.628.002-85.259.002-.016.005-.031.007-.047 1.663-10.777 11.001-19.055 22.236-19.055h100.62c11.236 0 20.573 8.278 22.236 19.055.002.016.005.031.007.047 1.161 9.98 1.013 76.513.002 85.259-.003.027-.01.054-.012.081-1.67 10.769-11.003 19.039-22.233 19.039h-52.939c-4.142 0-7.5 3.358-7.5 7.5 0 4.143 3.358 7.5 7.5 7.5h52.939c16.571 0 30.656-10.808 35.601-25.742h34.859c1.781 0 3.23 1.449 3.23 3.23v66.778c-8.282.065-15 6.817-15 15.113v14.761c0 8.337 6.783 15.12 15.12 15.12h101.76c8.337 0 15.12-6.783 15.12-15.12v-14.761c0-8.296-6.718-15.048-15-15.113zm-179.062-280.508h74.562c6.065 0 11 4.935 11 11 0 5.952-5.022 11.03-11 11h-74.562zm-93.876 22h-74.562c-6.065 0-11-4.935-11-11 0-5.986 5.005-11.027 11-11h74.562zm-109.062 181.001c0 4.136-3.364 7.5-7.5 7.5s-7.5-3.364-7.5-7.5v-87c0-4.136 3.364-7.5 7.5-7.5s7.5 3.364 7.5 7.5zm68.19-7.501h-53.19v-72h53.19zm98.251-112.739h-20.882v-28.378h20.882zm-34.879-43.378c-4.136 0-7.5-3.364-7.5-7.5v-41.763c0-4.136 3.364-7.5 7.5-7.5h48.876c4.136 0 7.5 3.364 7.5 7.5v41.763c0 4.136-3.364 7.5-7.5 7.5zm250.438 270.999c0 .066-.054.12-.12.12h-101.76c-.066 0-.12-.054-.12-.12v-14.761c0-.065.054-.119.12-.119h101.76c.066 0 .12.054.12.119zm-43.622 41.07c-4.069-4.021-10.688-4.021-14.755-.002-14.16 13.987-47.095 49.169-47.095 73.717 0 30.025 24.436 54.453 54.472 54.453s54.472-24.428 54.472-54.453c0-24.548-32.935-59.73-47.094-73.715zm-7.378 113.168c-21.765 0-39.472-17.698-39.472-39.453 0-9.324 10.415-30.446 39.472-59.881 29.06 29.436 39.472 50.556 39.472 59.881 0 21.755-17.707 39.453-39.472 39.453z"/></g></svg>