<svg id="Layer_1" enable-background="new 0 0 512 512" height="48" viewBox="0 0 512 512" width="48" xmlns="http://www.w3.org/2000/svg"><g><path d="m501.207 213.284c4.142 0 7.5-3.358 7.5-7.5v-171.27c0-19.031-15.47-34.514-34.485-34.514h-97.113c-36.346 0-58.664 22.083-58.664 37.916 0 5.349 1.566 9.62 4.655 12.694 5.345 5.319 13.033 5.281 21.163 5.244.697-.003 1.404-.007 2.12-.007h87.26v26.556h-107.698c-4.142 0-7.5 3.358-7.5 7.5s3.358 7.5 7.5 7.5h107.697v26.528h-107.697c-4.142 0-7.5 3.358-7.5 7.5s3.358 7.5 7.5 7.5h107.697v26.528h-107.697c-4.142 0-7.5 3.358-7.5 7.5s3.358 7.5 7.5 7.5h107.697v26.527h-107.697c-4.142 0-7.5 3.358-7.5 7.5s3.358 7.5 7.5 7.5h107.697v26.528h-107.697c-4.142 0-7.5 3.358-7.5 7.5s3.358 7.5 7.5 7.5h107.697v26.528h-107.697c-4.142 0-7.5 3.358-7.5 7.5s3.358 7.5 7.5 7.5h107.697v26.527h-107.697c-4.142 0-7.5 3.358-7.5 7.5s3.358 7.5 7.5 7.5h107.697v26.528h-107.697c-4.142 0-7.5 3.358-7.5 7.5s3.358 7.5 7.5 7.5h107.697v26.528h-107.697c-4.142 0-7.5 3.358-7.5 7.5s3.358 7.5 7.5 7.5h107.697v26.528h-87.26c-.716 0-1.423-.003-2.12-.007-8.132-.039-15.818-.076-21.163 5.244-3.088 3.074-4.655 7.345-4.655 12.694 0 15.833 22.318 37.916 58.664 37.916h97.113c20.731 0 34.485-26.097 34.485-43.358v-228.247c0-4.142-3.358-7.5-7.5-7.5s-7.5 3.358-7.5 7.5v228.247c0 11.714-10.078 28.358-19.485 28.358h-97.113c-12.73 0-24.569-3.417-33.335-9.621-7.524-5.325-10.329-10.981-10.329-13.295 0-1.219.175-1.869.268-2.081 1.324-.901 6.824-.875 10.478-.857.721.003 1.452.007 2.192.007h89.204c7.199 0 13.056-5.87 13.056-13.084v-404.166c0-7.199-5.857-13.056-13.056-13.056h-89.204c-.74 0-1.471.003-2.192.007-3.653.019-9.153.044-10.478-.857-.093-.212-.268-.862-.268-2.081 0-2.314 2.804-7.971 10.329-13.295 8.767-6.204 20.606-9.621 33.336-9.621h97.113c10.744 0 19.485 8.754 19.485 19.514v171.27c0 4.142 3.358 7.5 7.5 7.5z"/><g><path d="m231.06 334.207v-31.647c0-6.343-4.831-11.578-11.006-12.222l-33.531-254.328c-2.768-21.202-17.948-36.01-36.917-36.01-19.061 0-34.254 14.818-36.949 36.039l-12.019 95.018c-.52 4.109 2.39 7.862 6.5 8.382 4.111.515 7.862-2.391 8.382-6.5l12.019-95.014c1.109-8.735 6.04-17.991 14.567-21.48v188.666c-13.874 3.376-24.208 15.89-24.208 30.776 0 14.9 10.333 27.425 24.208 30.804v23.576h-47.811l16.061-121.915c.541-4.106-2.349-7.874-6.456-8.415-4.106-.541-7.874 2.35-8.415 6.456l-16.327 123.939c-6.189.631-11.034 5.874-11.034 12.227v31.648c-43.349 13.494-65.152 47.253-64.828 100.429.194 37.537 24.213 67.932 59.779 75.637 5.299 1.141 10.674 1.699 16.029 1.699 17.568 0 34.897-6.013 48.458-17.19 9.613-7.925 17.038-17.984 22.036-29.598 5.002 11.609 12.434 21.668 22.053 29.598 13.562 11.178 30.88 17.19 48.438 17.19 5.353 0 10.73-.559 16.027-1.701 35.542-7.693 59.574-38.085 59.799-75.632.296-53.19-21.515-86.948-64.855-100.432zm-59.41-296.246 33.265 252.308h-47.809v-23.578c13.859-3.381 24.179-15.905 24.179-30.802 0-14.884-10.32-27.397-24.179-30.775v-188.652c8.472 3.504 13.403 12.759 14.544 21.499zm-38.751 197.927c0-9.197 7.495-16.68 16.708-16.68 9.197 0 16.679 7.482 16.679 16.68 0 9.213-7.482 16.708-16.679 16.708-9.213 0-16.708-7.495-16.708-16.708zm9.15 191.416c-.028 23.298-8.562 43.152-24.029 55.904-14.186 11.693-33.547 16.327-51.778 12.403-28.521-6.179-47.789-30.713-47.945-61.059-.295-48.362 19.076-76.961 59.22-87.431 3.302-.861 5.607-3.844 5.607-7.257v-34.595h58.981zm90.9 68.305c-18.224 3.928-37.571-.708-51.757-12.402-15.486-12.767-24.03-32.621-24.058-55.896l-.028-122.042h56.332c.007 0 .014.001.021.001.005 0 .01-.001.015-.001h2.586v34.595c0 3.414 2.305 6.396 5.608 7.257 40.136 10.462 59.516 39.062 59.247 87.432-.182 30.349-19.46 54.886-47.966 61.056z"/><path d="m201.301 362.918c-7.401-.909-13.72.741-18.272 4.768-3.048 2.696-6.681 7.769-6.681 16.639l.085 42.945c.068 34.613 22.527 50.417 43.367 50.452h.069c20.138 0 41.597-15.156 41.749-43.28.264-45.612-17.211-66.334-60.317-71.524zm18.572 99.805c-.016 0-.032 0-.048 0-14.098-.024-28.345-11.005-28.393-35.481l-.085-42.931c0-1.805.281-4.205 1.619-5.389.919-.813 2.515-1.243 4.517-1.243.629 0 1.3.042 2.002.129.006.001.013.001.02.002 35.445 4.268 47.333 18.536 47.112 56.548-.106 19.496-13.927 28.365-26.744 28.365z"/><path d="m37.566 434.444c.169 28.131 21.629 43.28 41.771 43.279h.091c20.83-.047 43.271-15.856 43.322-50.452l.085-42.941c.022-8.848-3.603-13.924-6.648-16.624-4.558-4.041-10.895-5.698-18.303-4.788-43.107 5.19-60.583 25.912-60.318 71.526zm62.132-56.636c.704-.086 1.375-.129 2.005-.129 2.01 0 3.611.432 4.533 1.249 1.331 1.181 1.604 3.568 1.6 5.368l-.085 42.949c-.036 24.464-14.268 35.446-28.356 35.478-.021 0-.042 0-.063 0-12.821 0-26.648-8.868-26.765-28.367-.221-38.009 11.667-52.277 47.112-56.545.006-.001.012-.002.019-.003z"/></g></g></svg>