<svg id="_x33_0" enable-background="new 0 0 64 64" height="48" viewBox="0 0 64 64" width="48" xmlns="http://www.w3.org/2000/svg"><path d="m60 25h-1v-3c0-1.654-1.346-3-3-3h-7.043l-17.879-17.164c-1.122-1.078-3.034-1.077-4.155-.001l-25.001 24.002c-.578.555-.905 1.302-.922 2.101-.016.802.28 1.562.834 2.137.562.588 1.352.925 2.166.925.778 0 1.516-.297 2.077-.835l.923-.886v29.721h33.069l-.061.857c-.006.071-.008.142-.008.212 0 1.617 1.315 2.931 2.931 2.931h2.138c1.616 0 2.931-1.314 2.931-2.931 0-.07-.002-.142-.007-.209l-.929-13.003c-.075-1.042-.951-1.857-1.995-1.857h-.069v-5c0-.552.449-1 1-1h14c1.654 0 3-1.346 3-3v-8c0-1.654-1.346-3-3-3zm-3-3v8c0 .552-.449 1-1 1h-24c-.551 0-1-.448-1-1v-8c0-.552.449-1 1-1h24c.551 0 1 .448 1 1zm-52.308 6.722c-.383.367-1.046.354-1.415-.031-.184-.192-.282-.444-.277-.712.005-.271.111-.513.307-.7l25.001-24.002c.373-.357 1.01-.358 1.384.001l16.377 15.722h-2.888l-14.181-13.614zm24.308-20.564 11.293 10.842h-8.293c-1.654 0-3 1.346-3 3v8c0 1.654 1.346 3 3 3h5v10c0 1.103-.897 2-2 2s-2-.897-2-2v-3c0-1.654-1.346-3-3-3s-3 1.346-3 3v11c0 1.103-.897 2-2 2s-2-.897-2-2v-18c0-2.206-1.794-4-4-4s-4 1.794-4 4v7c0 .552-.449 1-1 1s-1-.448-1-1v-4c0-1.654-1.346-3-3-3h-1v-5.641zm16.069 52.842h-2.138c-.514 0-.931-.418-.929-.997l.643-9.003h2.708l.647 9.069c0 .513-.417.931-.931.931zm.142-12h-2.423l.143-2h2.138zm15.789-13c0 .552-.449 1-1 1h-14c-1.654 0-3 1.346-3 3v5h-.069c-1.044 0-1.92.815-1.995 1.857l-.724 10.143h-31.212v-22h1c.551 0 1 .448 1 1v4c0 1.654 1.346 3 3 3s3-1.346 3-3v-7c0-1.103.897-2 2-2s2 .897 2 2v18c0 2.206 1.794 4 4 4s4-1.794 4-4v-11c0-.552.449-1 1-1s1 .448 1 1v3c0 2.206 1.794 4 4 4s4-1.794 4-4v-10h17c1.654 0 3-1.346 3-3v-3h1c.551 0 1 .448 1 1z"/></svg>