<svg id="Capa_1" enable-background="new 0 0 512 512" height="48" viewBox="0 0 512 512" width="48" xmlns="http://www.w3.org/2000/svg"><g><g><path d="m256 404.645c68.302 0 123.871-55.569 123.871-123.871s-55.569-123.871-123.871-123.871-123.871 55.569-123.871 123.871 55.569 123.871 123.871 123.871zm0-231.226c59.194 0 107.355 48.161 107.355 107.355s-48.161 107.355-107.355 107.355-107.355-48.161-107.355-107.355 48.161-107.355 107.355-107.355z"/><path d="m256 305.548c13.659 0 24.774-11.115 24.774-24.774s-11.115-24.774-24.774-24.774-24.774 11.115-24.774 24.774 11.115 24.774 24.774 24.774zm0-33.032c4.558 0 8.258 3.708 8.258 8.258s-3.7 8.258-8.258 8.258-8.258-3.708-8.258-8.258 3.7-8.258 8.258-8.258z"/><path d="m206.452 338.581h99.097c13.659 0 24.774-11.115 24.774-24.774v-66.065c0-13.659-11.115-24.774-24.774-24.774h-99.097c-13.659 0-24.774 11.115-24.774 24.774v66.065c-.001 13.658 11.115 24.774 24.774 24.774zm-8.258-90.839c0-4.55 3.7-8.258 8.258-8.258h99.097c4.558 0 8.258 3.708 8.258 8.258v66.065c0 4.55-3.7 8.258-8.258 8.258h-99.097c-4.558 0-8.258-3.708-8.258-8.258z"/><path d="m478.968 157.737v-91.672c0-13.659-11.115-24.774-24.774-24.774h-99.097c-13.659 0-24.774 11.115-24.774 24.774v76.577c-22.14-11.958-47.443-18.771-74.323-18.771-36.154 0-69.393 12.412-95.95 33.032h-44.437c0-9.109-7.407-16.516-16.516-16.516h-49.549c-9.109 0-16.516 7.408-16.516 16.516v.834c-18.82 3.84-33.032 20.522-33.032 40.457v231.226c0 22.767 18.523 41.29 41.29 41.29h429.42c22.767 0 41.29-18.523 41.29-41.29v-231.226c0-19.935-14.212-36.617-33.032-40.457zm16.516 40.457v24.774h-93.754c-7.374-18.515-18.176-35.262-31.62-49.548h100.6c13.658-.001 24.774 11.115 24.774 24.774zm-140.387-140.388h99.097c4.558 0 8.258 3.708 8.258 8.258v8.258h-115.613v-8.258c0-4.55 3.699-8.258 8.258-8.258zm-8.258 33.033h115.613v66.065h-110.502c-1.676-1.305-3.378-2.585-5.112-3.823v-62.242zm49.548 189.935c0 77.411-62.976 140.387-140.387 140.387s-140.387-62.976-140.387-140.387 62.976-140.387 140.387-140.387 140.387 62.976 140.387 140.387zm-30.307 111.633c3.427 3.08 5.533 7.457 5.533 12.238 0 9.109-7.407 16.516-16.516 16.516-6.128 0-11.545-3.394-14.377-8.522 9.133-5.888 17.655-12.635 25.36-20.232zm-316.532-235.504h49.548l.008 16.516h-49.556zm-16.367 17.995c.76 8.407 7.771 15.038 16.367 15.038h49.548c9.109 0 16.516-7.407 16.516-16.516h26.277c-13.444 14.286-24.246 31.034-31.62 49.548h-93.753v-24.774c0-10.81 6.995-19.919 16.665-23.296zm-16.665 254.521v-90.839h24.774c13.659 0 24.774 11.115 24.774 24.774v90.839h-24.774c-13.659.001-24.774-11.115-24.774-24.774zm454.194 24.775h-388.129v-90.839c0-22.767-18.523-41.29-41.29-41.29h-24.775v-82.581h88.279c-3.609 13.18-5.698 26.979-5.698 41.29 0 86.52 70.383 156.903 156.903 156.903 25.319 0 49.185-6.169 70.383-16.871 5.698 10.174 16.508 16.871 28.713 16.871 18.217 0 33.032-14.815 33.032-33.032 0-9.497-4.096-18.267-10.876-24.419 22.255-27.095 35.65-61.737 35.65-99.452 0-14.311-2.089-28.11-5.698-41.29h88.279v189.935c.001 13.659-11.115 24.775-24.773 24.775z"/><path d="m412.903 189.935h66.065v16.516h-66.065z"/><circle cx="437.677" cy="115.613" r="8.258"/><path d="m33.032 272.516h49.548v16.516h-49.548z"/><path d="m429.419 355.097h49.548v-99.097h-49.548zm16.516-82.581h16.516v66.065h-16.516z"/></g></g></svg>