<svg id="Capa_1" enable-background="new 0 0 511.997 511.997" height="48" viewBox="0 0 511.997 511.997" width="48" xmlns="http://www.w3.org/2000/svg"><g><g><g><g><g><g><g><path d="m157.137 216.441c-5.522 0-10-4.477-10-10v-7.745c0-5.523 4.478-10 10-10s10 4.477 10 10v7.745c0 5.522-4.478 10-10 10z"/></g></g></g><g><g><g><path d="m227.536 216.441c-5.522 0-10-4.477-10-10v-7.745c0-5.523 4.478-10 10-10s10 4.477 10 10v7.745c0 5.522-4.477 10-10 10z"/></g></g></g></g><g><g><path d="m191.628 272.248c-8.376 0-16.247-3.272-22.166-9.211-3.898-3.912-3.887-10.244.025-14.142 3.915-3.898 10.245-3.886 14.143.026 2.138 2.146 4.979 3.328 7.998 3.328s5.859-1.182 7.997-3.328c3.899-3.913 10.23-3.923 14.143-.026 3.912 3.898 3.924 10.23.025 14.142-5.919 5.939-13.79 9.211-22.165 9.211z"/></g></g><g><path d="m496.81 413.05c-5.086-2.145-10.953.241-13.099 5.331-16.556 39.281-54.703 64.663-97.186 64.663-58.159 0-105.475-47.501-105.475-105.887s47.315-105.887 105.475-105.887c42.709 0 80.935 25.568 97.385 65.137 2.119 5.1 7.973 7.513 13.072 5.395 5.1-2.12 7.515-7.973 5.395-13.073-19.561-47.055-65.036-77.459-115.852-77.459-11.46 0-22.565 1.55-33.12 4.451v-84.55c0-89.446-72.527-162.216-161.676-162.216-89.147 0-161.674 72.77-161.674 162.216v86.963c-18.459 10.103-30.055 29.418-30.055 50.924 0 28.929 21.207 52.983 48.847 57.346-10.269 10.932-16.567 25.635-16.567 41.782v84.858c0 5.523 4.478 10 10 10h298.897c3.871 0 7.228-2.2 8.89-5.418 11.542 3.522 23.783 5.418 36.457 5.418 50.547 0 95.929-30.183 115.616-76.895 2.146-5.09-.242-10.954-5.33-13.099zm-476.81-103.992c0-15.643 9.339-29.513 23.791-35.335 3.785-1.524 6.264-5.195 6.264-9.275v-93.278c0-78.419 63.555-142.216 141.675-142.216s141.674 63.798 141.674 142.216v91.945c-33.932 15.974-59.619 46.754-68.743 83.995h-41.571v-25.199c19.63-6.192 37.266-18.219 50.276-34.424 14.921-18.585 23.139-41.986 23.139-65.894v-35.984c0-4.485-2.986-8.422-7.306-9.63-19.547-5.469-41.974-19.861-61.529-39.487-4.961-4.978-9.645-10.202-13.921-15.527-14.442-17.984-36.826-27.503-59.85-25.461-22.905 2.028-43.134 15.237-54.112 35.335-8.397 15.372-12.836 32.818-12.836 50.451v40.305c0 23.908 8.218 47.309 23.139 65.894 13.011 16.205 30.647 28.231 50.276 34.423v25.199h-102.484c-20.888-.001-37.882-17.071-37.882-38.053zm152.619-4.518c-38.664-8.938-65.667-43.046-65.667-82.946v-40.305c0-14.292 3.592-28.422 10.389-40.863 7.882-14.43 21.851-23.542 38.323-25 16.355-1.443 32.246 5.303 42.492 18.063 4.722 5.879 9.885 11.639 15.347 17.121 19.601 19.67 42.167 34.759 63.003 42.285v28.7c0 39.899-27.003 74.008-65.667 82.946-4.536 1.049-7.748 5.088-7.748 9.743v32.828h-22.724v-32.828c0-4.656-3.212-8.696-7.748-9.744zm50.941 62.57-32.455 96.438-37.07-96.438zm-171.28 41.076c0-22.649 18.426-41.075 41.075-41.075h39.252l44.565 115.933h-124.892zm153.366 74.858 39.015-115.933h16.785c-.262 3.315-.396 6.665-.396 10.046 0 44.376 23.005 83.463 57.678 105.887z"/><path d="m511.81 375.198c-.848-4.11-4.231-7.335-8.389-7.94-4.169-.606-8.396 1.58-10.31 5.333-1.9 3.726-1.273 8.341 1.592 11.404 2.817 3.01 7.315 3.959 11.116 2.394 4.354-1.793 6.914-6.571 5.991-11.191z"/><path d="m452.907 341.162c0-5.523-4.478-10-10-10-11.007 0-19.961 8.97-19.961 19.996v7.422c0 16.692-11.185 30.809-26.422 35.185v-43.979c4.157-1.213 7.194-5.052 7.194-9.6 0-5.523-4.478-10-10-10h-14.388c-5.522 0-10 4.477-10 10 0 4.548 3.037 8.387 7.193 9.6v43.979c-15.236-4.376-26.421-18.493-26.421-35.185v-7.422c0-11.026-8.954-19.996-19.961-19.996-5.523 0-10.02 4.475-10.02 9.998s4.458 9.998 9.98 9.998v7.422c0 27.781 20.064 50.95 46.421 55.697v25.158c-4.156 1.213-7.193 5.052-7.193 9.6 0 5.523 4.478 10 10 10h14.388c5.522 0 10-4.477 10-10 0-4.549-3.038-8.387-7.194-9.6v-25.157c26.358-4.747 46.422-27.916 46.422-55.697l-.044-7.418h.005c5.524-.001 10.001-4.478 10.001-10.001z"/></g></g></g></g></svg>