<svg height="511pt" viewBox="0 -46 511.99975 511" width="511pt" xmlns="http://www.w3.org/2000/svg"><path d="m509.980469 364.445312c1.617187-1.914062 2.316406-4.441406 1.902343-6.914062l-42.664062-256c-.6875-4.117188-4.246094-7.132812-8.414062-7.136719h-25.601563v-8.53125c.039063-32.949219-26.640625-59.6875-59.589844-59.726562-18.851562-.023438-36.605469 8.867187-47.878906 23.976562-14.957031-39.613281-59.195313-59.605469-98.8125-44.652343-20.609375 7.78125-36.875 24.046874-44.652344 44.652343-19.707031-26.40625-57.085937-31.835937-83.492187-12.132812-15.109375 11.273437-24 29.027343-23.980469 47.882812v8.53125h-25.597656c-4.171875.003907-7.730469 3.019531-8.414063 7.136719l-42.667968 256c-.773438 4.648438 2.367187 9.046875 7.019531 9.820312.460937.074219.925781.113282 1.394531.113282h97.828125l-3.960937 41.867187c-.441407 4.691407 3 8.851563 7.695312 9.296875.277344.027344.558594.039063.839844.039063h290.136718c4.710938.019531 8.550782-3.785157 8.570313-8.496094 0-.28125-.011719-.5625-.039063-.839844l-3.957031-41.867187h97.828125c2.507813 0 4.886719-1.105469 6.507813-3.019532zm-177.179688-278.582031c0-23.566406 19.101563-42.667969 42.667969-42.667969 23.5625 0 42.667969 19.101563 42.667969 42.667969v8.53125h-85.335938zm-136.535156 0v-8.535156c0-32.988281 26.746094-59.734375 59.734375-59.734375 32.992188 0 59.734375 26.746094 59.734375 59.734375v17.066406h-34.132813c-4.714843 0-8.535156 3.820313-8.535156 8.535157v25.597656h-34.132812v-25.597656c0-4.714844-3.820313-8.535157-8.535156-8.535157h-34.132813zm119.46875 25.597657v17.066406h-25.601563v-17.066406zm-119.46875 0h25.601563v17.066406h-25.601563zm-102.398437-25.597657c0-23.566406 19.101562-42.667969 42.664062-42.667969 23.566406 0 42.667969 19.101563 42.667969 42.667969v8.53125h-85.332031zm14.085937 264.535157h-89.34375l39.816406-238.9375h18.371094v17.066406h17.070313v-17.066406h85.332031v17.066406h-42.667969c-4.414062-.019532-8.117188 3.335937-8.53125 7.734375zm12.367187 51.199218 23.976563-256h34.902344v34.132813h17.066406v-34.132813h119.46875v34.132813h17.066406v-34.132813h34.902344l23.976563 256zm283.742188-51.199218-20.058594-214.136719c-.417968-4.398438-4.117187-7.753907-8.535156-7.734375h-42.667969v-17.066406h85.335938v17.066406h17.066406v-17.066406h18.371094l39.816406 238.9375zm0 0"/></svg>