<?xml version="1.0"?>
<svg xmlns="http://www.w3.org/2000/svg" xmlns:xlink="http://www.w3.org/1999/xlink" xmlns:svgjs="http://svgjs.com/svgjs" version="1.1" width="48" height="48" x="0" y="0" viewBox="0 0 64 64" style="enable-background:new 0 0 512 512" xml:space="preserve"><g><g xmlns="http://www.w3.org/2000/svg"><path d="m62.707 21.293-2.707-2.707v-1.586c0-.431-.275-.812-.684-.948l-2.339-.78c-.194-2.508-1.604-4.813-3.778-6.118l-1.685-1.011c-.309-.185-.694-.191-1.007-.013s-.507.51-.507.87v2.172c0 1.797.602 3.502 1.708 4.884l-1.085 1.446c-.703.938-1.823 1.498-2.995 1.498-.829 0-1.645-.28-2.299-.788l-3.406-2.649c-2.954-2.298-6.641-3.563-10.382-3.563-5.093 0-9.864 2.261-13.089 6.203-2.859 3.494-4.918 7.666-5.953 12.062l-1.845 7.843c-.384 1.632-1.088 3.139-2.094 4.48-.891 1.188-2.535 1.7-3.94 1.23l-2.303-.768c-.416-.141-.872.008-1.127.363-.257.358-.252.837.01 1.187l1.585 2.114c1.074 1.432 2.782 2.286 4.571 2.286 1.977 0 3.844-1.048 4.875-2.734l9.222-15.09c.622.553 1.335 1.017 2.142 1.339.438.176.796.505 1.007.927.213.427.261.915.133 1.375l-4.699 16.916c-.053.191-.048.395.015.584l1 3c.137.408.518.683.949.683h11.315c1.481 0 2.685-1.204 2.685-2.685 0-.475-.126-.924-.346-1.315h3.661c1.481 0 2.685-1.204 2.685-2.685 0-1.234-.836-2.306-2.034-2.604l-2.724-.681c-.133-.034-.271-.039-.407-.017l-4.247.708 3.884-9.71.923 1.385c.67 1.004 1.79 1.604 2.997 1.604 1.373 0 2.607-.763 3.222-1.991l.774-1.548 2.057 1.372c.164.108.358.167.555.167h2.764l1.789.895c.138.069.292.105.447.105h2c.379 0 .725-.214.895-.553l1-2c.192-.385.117-.85-.188-1.154l-2.707-2.707v-1.586c0-.334-.167-.646-.445-.832l-1.886-1.257c.894-.481 1.658-1.178 2.194-2.072l1.703-2.839h2.198l1.789.895c.138.069.292.105.447.105h2c.379 0 .725-.214.895-.553l1-2c.192-.385.116-.849-.188-1.154zm-32.486 27.334c.227.282.586.42.943.359l5.795-.966 2.522.63c.306.078.519.35.519.665 0 .378-.307.685-.685.685h-8.315v.02c-.055 0-.109-.016-.165-.007l-4.104.684 8.651-18.087c.181.125.367.24.557.349l-5.868 14.669c-.133.336-.076.718.15.999zm7.064-13.647.502-1.256c.584.157 1.189.246 1.807.264-.628.576-1.433.928-2.309.992zm14.008-1.273 2.49 2.49-.401.803h-1.146l-1.789-.895c-.138-.069-.292-.105-.447-.105h-2.697l-2.013-1.342 1.635-3.27c.341-.682.885-1.224 1.54-1.583l-.019.028 2.554 1.702v1.465c0 .266.105.52.293.707zm9.089-10.707h-1.146l-1.789-.895c-.138-.069-.292-.105-.447-.105h-3c-.351 0-.677.185-.857.485l-1.995 3.324c-.511.853-1.323 1.454-2.286 1.694-1.621.405-2.979 1.494-3.727 2.989l-3.311 6.621c-.272.547-.822.887-1.432.887-.537 0-1.035-.267-1.333-.713l-.357-.536c1.517-.457 2.799-1.517 3.534-2.987l.819-1.638c.618-1.236.945-2.62.945-4.003 0-1.968 1.333-3.676 3.243-4.153l-.485-1.939c-2.801.699-4.758 3.205-4.758 6.092 0 1.073-.254 2.148-.734 3.108l-.384.769h-1.053c-1.31 0-2.551-.434-3.568-1.226l.642-1.343c.064-.134.097-.282.097-.431v-.615c0-3.683-2.209-6.945-5.628-8.313l-.743 1.857c2.655 1.061 4.371 3.596 4.371 6.456v.389l-10.902 22.794c-.161.337-.121.734.103 1.033.225.298.596.445.964.385l5.795-.966 2.522.63c.305.078.518.35.518.665 0 .378-.307.685-.685.685h-10.594l-.675-2.026 4.618-16.623c.26-.938.163-1.934-.271-2.804-.43-.859-1.158-1.53-2.052-1.889-2.03-.81-3.341-2.746-3.341-4.931v-1.727h-2v1.727c0 1.395.402 2.707 1.096 3.834l-9.571 15.662c-.67 1.096-1.884 1.777-3.169 1.777-.988 0-1.938-.401-2.629-1.093 2.024.374 4.189-.463 5.432-2.119 1.172-1.562 1.994-3.319 2.441-5.221l1.845-7.843c.965-4.103 2.886-7.995 5.554-11.256 2.844-3.475 7.051-5.468 11.542-5.468 3.299 0 6.55 1.115 9.155 3.141l3.406 2.65c1.002.779 2.255 1.209 3.526 1.209 1.798 0 3.516-.858 4.595-2.298l1.577-2.102c.299-.397.259-.955-.093-1.307-1.101-1.101-1.707-2.564-1.707-4.121v-.405l.17.102c1.746 1.048 2.83 2.963 2.83 4.998v.133c0 .431.275.812.684.948l2.316.773v1.279c0 .266.105.52.293.707l2.49 2.49z" fill="#000000" data-original="#000000" style=""/><path d="m55.5 18c-.827 0-1.5.673-1.5 1.5s.673 1.5 1.5 1.5 1.5-.673 1.5-1.5-.673-1.5-1.5-1.5z" fill="#000000" data-original="#000000" style=""/><path d="m48.5 31c-.827 0-1.5.673-1.5 1.5s.673 1.5 1.5 1.5 1.5-.673 1.5-1.5-.673-1.5-1.5-1.5z" fill="#000000" data-original="#000000" style=""/></g></g></svg>
