<svg width="100.353" height="100.352" xmlns="http://www.w3.org/2000/svg">

 <g>
  <title>background</title>
  <rect fill="none" id="canvas_background" height="402" width="582" y="-1" x="-1"/>
 </g>
 <g>
  <title>Layer 1</title>
  <path fill="#597d8c" id="svg_2" d="m58.23,69.992l14.993,-24.108c0.049,-0.078 0.09,-0.16 0.122,-0.245c2.589,-4.222 3.956,-9.045 3.956,-13.969c0,-14.772 -12.018,-26.79 -26.79,-26.79s-26.791,12.018 -26.791,26.79c0,4.925 1.369,9.75 3.96,13.975c0.03,0.074 0.065,0.146 0.107,0.216l14.455,24.191c-11.221,1.586 -18.6,6.2 -18.6,11.797c0,6.935 11.785,12.366 26.829,12.366s26.829,-5.432 26.829,-12.366c0.001,-5.623 -7.722,-10.34 -19.07,-11.857zm-27.857,-25.698c-2.39,-3.804 -3.653,-8.169 -3.653,-12.624c0,-13.118 10.672,-23.79 23.791,-23.79c13.118,0 23.79,10.672 23.79,23.79c0,4.457 -1.263,8.822 -3.652,12.624c-0.05,0.08 -0.091,0.163 -0.124,0.249l-15.84,25.467c-0.238,0.365 -0.285,0.448 -0.576,0.926l-4,6.432l-19.602,-32.804c-0.035,-0.093 -0.08,-0.184 -0.134,-0.27zm20.099,46.921c-14.043,0 -23.829,-4.937 -23.829,-9.366c0,-4.02 7.37,-7.808 17.283,-8.981l4.87,8.151c0.269,0.449 0.751,0.726 1.274,0.73c0.004,0 0.009,0 0.013,0c0.518,0 1,-0.268 1.274,-0.708l5.12,-8.232c10.071,1.091 17.823,4.975 17.823,9.04c0.001,4.43 -9.785,9.366 -23.828,9.366z"/>
  <path fill="#597d8c" id="svg_3" d="m60.213,31.67c0,-5.371 -4.37,-9.741 -9.741,-9.741s-9.741,4.37 -9.741,9.741s4.37,9.741 9.741,9.741c5.371,0 9.741,-4.37 9.741,-9.741zm-16.482,0c0,-3.717 3.024,-6.741 6.741,-6.741s6.741,3.024 6.741,6.741s-3.023,6.741 -6.741,6.741s-6.741,-3.024 -6.741,-6.741z"/>
  <polyline stroke-linecap="round" id="svg_4" points="-37.37460500262364,-0.2008001386442615 -37.37460500262364,-0.2008001386442615 " stroke-width="1.5" stroke="#fff" fill="none"/>
 </g>
</svg>