<?xml version="1.0" encoding="UTF-8"?>
<svg width="52px" height="48px" viewBox="0 0 52 48" version="1.1" xmlns="http://www.w3.org/2000/svg" xmlns:xlink="http://www.w3.org/1999/xlink">
    <title>iconfinder_ic_hourglass_empty_48px_3669169 copy 3</title>
    <defs>
        <filter id="filter-1">
            <feColorMatrix in="SourceGraphic" type="matrix" values="0 0 0 0 1.000000 0 0 0 0 1.000000 0 0 0 0 1.000000 0 0 0 1.000000 0"></feColorMatrix>
        </filter>
        <filter x="-39.1%" y="-52.1%" width="178.1%" height="202.7%" filterUnits="objectBoundingBox" id="filter-2">
            <feOffset dx="0" dy="2" in="SourceAlpha" result="shadowOffsetOuter1"></feOffset>
            <feGaussianBlur stdDeviation="2" in="shadowOffsetOuter1" result="shadowBlurOuter1"></feGaussianBlur>
            <feColorMatrix values="0 0 0 0 0.304438937   0 0 0 0 0.0948300748   0 0 0 0 0.0948300748  0 0 0 0.5 0" type="matrix" in="shadowBlurOuter1" result="shadowMatrixOuter1"></feColorMatrix>
            <feMerge>
                <feMergeNode in="shadowMatrixOuter1"></feMergeNode>
                <feMergeNode in="SourceGraphic"></feMergeNode>
            </feMerge>
        </filter>
    </defs>
    <g id="Page-1" stroke="none" stroke-width="1" fill="none" fill-rule="evenodd">
        <g id="iconfinder_ic_hourglass_empty_48px_3669169-copy-3" transform="translate(2.000000, 0.000000)">
            <rect id="Rectangle" fill="#B34180" x="0" y="0" width="48" height="48" rx="6"></rect>
            <g filter="url(#filter-1)" id="iconfinder_Arrow_2-52_6764018-(1)">
                <g filter="url(#filter-2)" transform="translate(8.000000, 12.000000)">
                    <path d="M23.83201,3.58393292 C19.3188827,3.59653367 15.6633784,7.27969294 15.6508722,11.8269633 C15.6456092,15.9758012 12.3051557,19.3357919 8.18746622,19.3340204 C4.06977675,19.3322488 0.732172362,15.9693849 0.730425858,11.820544 C0.728679355,7.67170304 4.06345126,4.30598766 8.18113776,4.30069666 L10.8794015,4.30069666 L7.92962469,7.27281443 C7.79070608,7.41277214 7.79069653,7.63969803 7.92960336,7.7796676 C8.06851019,7.91963718 8.29373221,7.91964681 8.43265083,7.77968912 L11.9896673,4.19574138 L11.9908838,4.19390641 C12.1278555,4.05458885 12.127865,3.83009912 11.9909051,3.69076976 L8.43265083,0.104961967 C8.29373221,-0.0349957246 8.06851019,-0.0349860913 7.92960336,0.104983483 C7.79069653,0.244953058 7.79070608,0.471878948 7.92962469,0.611836654 L10.8794584,3.58396518 L8.18113776,3.58393292 C3.66282014,3.58393292 0,7.27446331 0,11.8269633 C0,16.3794632 3.66282014,20.0699936 8.18113776,20.0699936 C12.6994554,20.0699936 16.3622755,16.3794632 16.3622755,11.8269633 C16.3675268,7.67812252 19.7079751,4.31812096 23.8256673,4.31988463 C27.9433596,4.32164829 31.2809715,7.68451015 31.2827219,11.8333539 C31.2844723,15.9821976 27.9496993,19.3479174 23.83201,19.3532083 L21.1337214,19.3532083 L24.0835231,16.3810906 C24.2208013,16.2408546 24.2200301,16.0152785 24.0817962,15.8759988 C23.9435623,15.7367191 23.7196799,15.7359421 23.5804969,15.8742589 L20.0234805,19.4581636 C19.8851211,19.60014 19.8856543,19.825493 20.0234805,19.9650168 L23.5804969,23.548943 C23.7196799,23.6872599 23.9435623,23.6864828 24.0817962,23.5472031 C24.2200301,23.4079235 24.2208013,23.1823473 24.0835231,23.0421114 L21.1337676,20.0699936 L23.83201,20.0699936 C28.3452939,20.0625911 32,16.3741879 32,11.8268863 C32,7.27958475 28.3451624,3.5912408 23.83201,3.58393292 Z" id="Path" stroke="#FFFFFF" fill="#000000" fill-rule="nonzero"></path>
                </g>
            </g>
            <polygon id="Path" points="0 0 48 0 48 48 0 48"></polygon>
        </g>
    </g>
</svg>