<?xml version="1.0" encoding="UTF-8"?>
<svg width="30px" height="30px" viewBox="0 0 42 42" version="1.1" xmlns="http://www.w3.org/2000/svg" xmlns:xlink="http://www.w3.org/1999/xlink">
    <title>ic-logo-web</title>
    <g id="Page-1" stroke="none" stroke-width="1" fill="none" fill-rule="evenodd">
        <g id="ic-logo-web" fill-rule="nonzero">
            <rect id="Rectangle" fill="#DE5BA4" x="0" y="0" width="42" height="42" rx="10"></rect>
            <path d="M26.8740075,14.6879497 C23.4891621,14.6974003 20.7475338,17.4597697 20.7381542,20.8702224 C20.7342069,23.9818509 18.2288668,26.501844 15.1405997,26.5005153 C12.0523326,26.4991866 9.54912927,23.9770387 9.54781939,20.865408 C9.54650952,17.7537773 12.0475884,15.2294907 15.1358533,15.2255225 L17.1595511,15.2255225 L14.9472185,17.4546108 C14.8430296,17.5595791 14.8430224,17.7297735 14.9472025,17.8347507 C15.0513826,17.9397279 15.2202992,17.9397351 15.3244881,17.8347668 L17.9922504,15.146806 C18.0958916,15.0409416 18.0958988,14.8725743 17.9931788,14.7680773 L15.3244881,12.0787215 C15.2202992,11.9737532 15.0513826,11.9737604 14.9472025,12.0787376 C14.8430224,12.1837148 14.8430296,12.3539092 14.9472185,12.4588775 L17.1595938,14.6879739 L15.1358533,14.6879497 C11.7471151,14.6879497 9,17.4558475 9,20.8702224 C9,24.2845974 11.7471151,27.0524952 15.1358533,27.0524952 C18.5245915,27.0524952 21.2717066,24.2845974 21.2717066,20.8702224 C21.2756451,17.7585919 23.7809813,15.2385907 26.8692505,15.2399135 C29.9575197,15.2412362 32.4607286,17.7633826 32.4620414,20.8750154 C32.4633543,23.9866482 29.9622745,26.510938 26.8740075,26.5149063 L24.850291,26.5149063 L27.0626423,24.2858179 C27.165601,24.180641 27.1650226,24.0114589 27.0613472,23.9069991 C26.9576717,23.8025393 26.7897599,23.8019566 26.6853727,23.9056942 L24.0176104,26.5936227 C23.9138408,26.700105 23.9142408,26.8691197 24.0176104,26.9737626 L26.6853727,29.6617073 C26.7897599,29.7654449 26.9576717,29.7648621 27.0613472,29.6604023 C27.1650226,29.5559426 27.165601,29.3867605 27.0626423,29.2815835 L24.8503257,27.0524952 L26.8740075,27.0524952 C30.2589704,27.0469433 33,24.2806409 33,20.8701647 C33,17.4596886 30.2588718,14.6934306 26.8740075,14.6879497 Z" id="Path" stroke="#FFFFFF" stroke-width="1.5"></path>
        </g>
    </g>
</svg>